<svg width="120" height="142" fill="none" xmlns="http://www.w3.org/2000/svg"><path d="M42.88 81.562c.366-5.549.58-9.819.998-14.066.07-.703 1.983-4.54 2.35-4.72 3.63-1.781 7.186-4.086 11.04-4.913 2.81-.603 6.331.204 7.457 4.167.307 1.084.955 2.067 1.447 3.097-.64.11-1.49.542-1.884.276-1.601-1.081-3.15-2.283-4.538-3.63-1.07-1.358-3.375.276-3.716.562-2.362 1.984-5.813 3.176-8.253 5.06-.483.371-1.26 6.615-1.587 9.611-.625 5.72 3.984 7.618 7.088 10.6 1.854 1.782 3.924 3.336 5.948 4.923.249.194.871.068 1.242-.094 4.58-1.997 9.133-4.06 13.727-6.024.944-.403 2.504-.116 2.956-.751 1.174-1.652 2.213-3.554 2.724-5.512 1.188-4.552 1.262-9.582 3.255-13.685 1.668-3.431-.45-4.02-1.877-5.521-3.88-4.085-7.857-8.08-11.658-12.238-1.43-1.564-2.46-3.498-3.757-5.197-.064-.085-.895.536-1.408.682-4.68 1.336-9.37 2.63-14.052 3.954-3.22.91-6.574 1.533-9.585 2.92-1.417.652-2.326 2.708-3.19 4.284-3.654 6.657-7.272 13.337-10.694 20.116-.382.758.317 2.388.947 3.308 2.802 4.09 5.606 8.198 8.702 12.056 3.803 4.739 7.602 9.562 12.005 13.685 1.88 1.76 5.237 2.105 8.007 2.636 6.1 1.17 12.246 2.661 18.393 2.766 2.696.046 5.797-2.581 8.104-4.684 7.79-7.101 15.54-14.287 22.725-21.997 1.416-1.52.475-5.543.207-8.371-.279-2.961-1.018-5.882-1.626-8.805-1.365-6.574-2.791-13.135-4.157-19.71-.664-3.2-.742-6.655-2.056-9.54-.775-1.7-3.327-2.8-5.296-3.663-6.946-3.049-13.923-6.047-21.008-8.742-5.827-2.216-11.715-4.688-17.79-5.63-3.014-.469-6.701 1.892-9.745 3.596-5.593 3.132-10.955 6.694-16.378 10.135-6.565 4.165-10.485 8.22-17.048 12.388-3.692 2.485-3.83 9.037-3.87 8.758.315 5.939 1.532 11.823 2.08 17.758.609 6.583.484 13.258 1.418 19.784.927 6.47 2.332 12.963 4.468 19.11.697 2.008 4.24 3.186 6.664 4.35 5.331 2.56 9.277 3.519 14.715 5.841 2.66 1.136 20.951 9.405 26.801 11.513 4.577 1.65 8.435 1.106 12.347-1.256 2.085-1.26 4.037-2.765 6.185-3.893 6.773-3.557 13.575-7.06 20.442-10.425 2.198-1.078 4.622-1.692 6.971-2.428.264-.083.837.342 1.021.673.133.238-.017.872-.25 1.055-5.395 4.219-10.548 8.84-16.306 12.473-6.877 4.34-14.507 7.454-21.383 11.796-6.254 3.95-10.119-1.229-14.76-3.07-8.266-3.279-16.28-7.209-24.46-10.718-7.242-3.106-14.558-6.032-21.856-8.997-5.146-2.09-5.598-6.745-6.13-11.366C3.903 96.391 2.607 86.95 1.8 77.468.869 66.54-.021 55.574 0 44.627c.005-2.362 3.635-5.224 6.181-6.98 8.77-6.051 17.723-11.84 26.757-17.48 5.797-3.62 11.632-7.388 17.914-9.888 2.432-.967 6.207 1.19 9.26 2.252 8.147 2.83 16.225 5.864 24.349 8.764 5.913 2.11 11.904 4.006 17.742 6.307 1.178.465 2.227 2.197 2.64 3.56 1.354 4.47 2.404 9.037 3.54 13.573 1.322 5.273 2.777 10.519 3.876 15.84 1.571 7.607 1.919 11.395 3.24 19.05.023.13-.467 4.167-.875 4.634-3.243 3.717-6.354 7.552-9.611 11.256-1.001 1.138-17.374 14.854-20.418 17.543-3.184 2.811-8.808 2.417-13.105 1.622-4.828-.491-19.259-2.993-24.587-5.258-2.928-1.244-4.888-5.093-7.012-7.975-4.93-6.689-9.432-13.72-14.622-20.187-3.286-4.094-1.232-7.313.403-10.764 3.22-6.795 6.503-13.563 9.982-20.224.946-1.811 2.403-3.772 4.125-4.623 1.752-.867 4.179-.185 6.208-.648 5.525-1.258 10.985-2.81 16.493-4.152 3.615-.882 6.452.43 8.842 3.284 4.261 5.087 8.653 10.062 13.01 15.066 3.367 3.869 1.985 8.245 1.143 12.44-.974 4.857-2.31 9.642-3.586 14.432-.157.588-.82 1.174-1.394 1.488-3.988 2.176-7.812 5.07-12.082 6.19-4.463 1.17-9.501 2.708-13.742-1.833-2.924-3.13-6.542-5.59-9.818-8.388-.906-.776-1.7-1.691-1.973-1.966z" fill="url(#paint0_linear)"/><path d="M113.436 29.116c-.315-.227-1.304-1.28-2.513-1.75-11.018-4.284-22.166-8.24-33.09-12.752-8.06-3.33-15.738-7.617-23.83-10.852-1.825-.73-4.843.765-6.99 1.877-5.554 2.876-28.547 14.95-34.776 17.462C9.7 24.124 6.78 24.18 4.025 24.619c-.324.052-.704-.253-1.058-.393.244-.307.426-.744.744-.904 6.04-3.054 12.052-6.172 18.16-9.08C29.2 10.752 49.966.936 53.123.412c2.22-.367 4.745 1.014 7.104 1.714 1.408.42 47.755 20.654 54.439 24.083 1.031.53 1.32 3.119 1.447 4.795.478 6.272.625 12.571 1.123 18.84.703 8.847 1.738 17.666 2.373 26.516.314 4.376.795 8.987-.233 13.125-.633 2.55-3.859 4.537-6.115 6.553-6.292 5.625-12.68 11.138-19.037 16.686-4.68 4.084-9.117 8.534-14.2 12.011-1.65 1.129-5.167.183-7.55-.644-14.11-4.895-27.95-9.845-41.992-14.943-.273-.099-2.232-.673-2.345-.921-.028-.062-.894-1.899-1.085-2.484-3.466-10.577-6.701-21.233-10.226-31.788-2.366-7.089 1.307-11.834 5.294-16.863 4.126-5.205 7.438-11.08 11.627-16.225 2.836-3.483 6.141-7.18 10.043-8.974 3.182-1.463 7.601-.59 11.399-.132 5.314.64 10.528 2.319 15.844 2.719 8.01.601 9.655 8.115 13.86 12.63 3.986 4.277 6.879 9.744 9.558 15.05.827 1.639-.477 4.504-1.06 6.737-1.5 5.734-2.96 11.49-4.801 17.116-.996 3.045-2.411 6.09-4.298 8.63-.793 1.066-3.318.738-5.017 1.192-6.266 1.673-12.486 3.546-18.79 5.05-2.368.565-4.997.723-7.356.263-.994-.193-1.411-2.63-2.41-3.756-4.495-5.064-9.385-9.8-13.5-15.155-1.215-1.581-.828-4.9-.355-7.252 1.058-5.264 2.754-10.392 3.963-15.63 1.218-5.272 6.262-3.787 9.407-5.463 4.17-2.222 9.034-3.108 13.613-4.527.285-.087.834.097.978.333.123.201-.22.654-.247 1.003-.036.47-.157 1.193.084 1.384 4.063 3.22 8.243 6.294 12.2 9.64.54.456-.07 2.209.003 3.352.247 3.89-.733 8.114-.733 12.383-.07 4.666-3.531 5.029-6.852 5.782-1.338.303-3.71.835-4.894.712-2.395-.249-3.563-.576-5.96-.847-5.778-.652-5.501-5.892-6.948-9.545-.351-.887 2.103-3.64 3.776-4.445 2.05-.986 4.657-1.161 6.98-1.005 1.028.07 2.739 1.79 2.768 2.803.089 3.074.453 5.41.102 8.493-.039.343-1.26 1.416-1.433 1.743.382-.057.783-.06 1.145-.181 2.42-.809 4.864-1.56 7.225-2.522.643-.262 1.393-1.136 1.47-1.803.473-4.074.907-8.166.99-12.259.015-.733-1.676-1.49-2.563-2.257-2.792-2.414-5.723-4.687-8.322-7.3-2.806-2.82-5.275-.411-7.69.313-4.05 1.213-8.11 2.655-11.8 4.686-1.286.707-1.796 3.388-2.122 5.264-.716 4.117-.375 8.567-1.779 12.382-1.904 5.175 2.307 6.587 4.363 9.242 2.54 3.282 5.76 6.023 8.314 9.297 2.527 3.24 5.19 1.129 7.769.678 6.928-1.21 13.871-2.408 20.69-4.107 1.258-.313 2.274-2.843 2.853-4.542 2.564-7.53 5.376-15.03 7.082-22.77.492-2.235-2.09-5.482-3.82-7.843-4.393-5.998-9.922-11.3-13.418-17.762-2.669-4.933-6.355-4.14-10.01-4.426-4.988-.39-10.096.389-15.021-.297-6.978-.973-9.417 4.326-12.711 8.427-3.71 4.62-7.028 9.561-10.6 14.297-1.683 2.233-3.921 4.113-5.229 6.53-.912 1.687-1.288 4.169-.84 6.032 1.99 8.261 4.121 16.508 6.7 24.597 1.326 4.162 3.336 8.232 5.762 11.842 1.067 1.589 3.898 2.045 6 2.811 5.657 2.06 11.3 4.19 17.046 5.96 7.593 2.34 15.21 4.744 22.981 6.241 1.85.356 4.541-2.563 6.52-4.348 10.256-9.246 20.128-18.956 30.732-27.764 4.172-3.465 2.805-7.163 2.653-10.829-.249-6.016-1.335-11.992-1.893-18-.938-10.052-1.735-20.118-2.712-31.624z" fill="url(#paint1_linear)"/><defs><linearGradient id="paint0_linear" x1="20.25" y1="9.487" x2="122.649" y2="165.075" gradientUnits="userSpaceOnUse"><stop stop-color="#33A9FF"/><stop offset="1" stop-color="#DA126A"/></linearGradient><linearGradient id="paint1_linear" x1="41.357" y1="21.035" x2="98.675" y2="135.893" gradientUnits="userSpaceOnUse"><stop stop-color="#33A9FF"/><stop offset="1" stop-color="#DA126A"/></linearGradient></defs></svg>